<svg width="140" height="140" viewBox="0 0 140 140" fill="none" xmlns="http://www.w3.org/2000/svg">
<g clip-path="url(#clip0_342_171)">
<rect width="140" height="140" rx="20" fill="#487BFF"/>
<path d="M186.344 161.268C184.697 146.28 171.989 135 164.761 135H161.022C161.022 135 150.233 134.002 150.233 121.52C150.233 121.52 154.567 98.4126 151.022 75.5C148.349 58.229 140.602 42 127.022 34.5C116.65 28.7722 101.194 26.6634 101.194 26.6634C101.194 26.6634 98.6029 24.349 97.7611 21.6709C96.8272 18.6999 97.3296 16.7714 97.7611 13.683C98.3923 9.16436 102.198 7.23355 101.684 2.69954C101.292 -0.765166 100.502 -3.19579 97.7611 -5.28841C94.0841 -8.09595 90.278 -6.97759 85.9916 -5.28841C81.1927 -3.39723 78.1306 -0.295939 76.1834 4.19728C74.7122 7.59216 74.5271 13.7494 76.6741 19.1747C78.8211 24.6 82.5585 27.1766 82.5585 27.1766C45.7789 31.6559 23.7114 59.7831 23.7114 94.561C23.7114 98.1088 23.8213 100.77 24.3947 104.5C24.5387 105.436 24.7118 106.44 24.9197 107.541C25.956 113.033 24.6925 118.026 24.6925 118.026C23.7114 123.679 19.8555 127.011 17.761 129C16.5392 130.16 11.979 132.008 8.39089 133.347C5.33926 134.486 2.04481 134.788 -1.108 135.606C-11.5568 138.317 -17.3119 149.691 -18.8401 161C-18.8481 161.06 -18.8558 161.119 -18.8632 161.178C-19.5042 166.299 -14.3993 169.5 -9.23901 169.5H6.52196C9.28338 169.5 11.522 171.5 11.522 174.5V205C11.522 211.5 17.0219 220 25.0219 220C33.5219 220 38.5217 210.5 38.5217 204V174.5C38.5217 172 41.3192 169.5 44.5217 169.5C47.5217 169.5 50.5217 171.571 50.5217 174.5C50.5217 178 56.3358 180.948 62.0217 181C67.8956 181.054 73.5217 178 73.5217 174.5C73.5217 172.5 76.5217 169.5 79.0217 169.5L137.522 169.5C142.022 169.5 145.022 173.001 145.022 177.5V190.5C145.022 194.5 149.343 198 153.522 198C157.701 198 162.022 194.501 162.022 190.5V177.5C162.022 175.25 165.022 171.284 168.022 170C168.022 170 180.092 169.5 182.761 169.5C183.911 169.5 184.768 168.572 185.371 167.516C186.439 165.647 186.579 163.407 186.344 161.268Z" fill="url(#paint0_linear_342_171)" stroke="#D1D1D1" stroke-width="3"/>
<circle cx="79.022" cy="82" r="28" fill="white"/>
<circle cx="70.522" cy="78.5" r="16.5" fill="#010101"/>
<mask id="mask0_342_171" style="mask-type:alpha" maskUnits="userSpaceOnUse" x="54" y="62" width="34" height="33">
<circle cx="70.522" cy="78.5" r="16.5" fill="#010101"/>
</mask>
<g mask="url(#mask0_342_171)">
<circle cx="81.022" cy="87" r="6" fill="white"/>
</g>
<rect x="113.022" y="111" width="21" height="10" rx="5" fill="#C2C2C2"/>
<rect x="30.022" y="111" width="14" height="10" rx="5" fill="#C2C2C2"/>
<path d="M-8.02672 107.503L12.4829 98.8151L18.2749 112.488L-2.2348 121.176L-8.02672 107.503ZM45.0523 4.38592L53.7402 24.8956L40.0671 30.6875L31.3792 10.1778L45.0523 4.38592ZM-2.94714 44.8767L17.8121 53.3385L12.1875 67.0903L-8.51382 58.7652L-2.94714 44.8767Z" fill="#F1C133"/>
</g>
<defs>
<linearGradient id="paint0_linear_342_171" x1="12.0222" y1="29.5" x2="41.0222" y2="352" gradientUnits="userSpaceOnUse">
<stop stop-color="#C2C2C2"/>
<stop offset="1" stop-color="#070707"/>
</linearGradient>
<clipPath id="clip0_342_171">
<rect width="140" height="140" rx="20" fill="white"/>
</clipPath>
</defs>
</svg>
